<mxfile host="app.diagrams.net" modified="2023-02-14T02:59:32.990Z" agent="5.0 (Windows NT 10.0; Win64; x64) AppleWebKit/537.36 (KHTML, like Gecko) Chrome/109.0.0.0 Safari/537.36 Edg/109.0.1518.78" etag="nQcuxf3cQ2uNq3mkUzH2" version="20.8.18" type="github">
  <diagram id="HYtUOQ_AoTbYvwTEXWAE" name="第 1 页">
    <mxGraphModel dx="1773" dy="967" grid="1" gridSize="10" guides="1" tooltips="1" connect="1" arrows="1" fold="1" page="1" pageScale="1" pageWidth="827" pageHeight="1169" math="0" shadow="0">
      <root>
        <mxCell id="0" />
        <mxCell id="1" parent="0" />
        <mxCell id="0G1sZd40Yb9WgYaxsjde-82" value="" style="rounded=0;whiteSpace=wrap;html=1;fontSize=18;" vertex="1" parent="1">
          <mxGeometry x="380" y="2050" width="186" height="160" as="geometry" />
        </mxCell>
        <mxCell id="0G1sZd40Yb9WgYaxsjde-57" value="" style="ellipse;whiteSpace=wrap;html=1;fontSize=18;" vertex="1" parent="1">
          <mxGeometry x="480" y="1590" width="150" height="80" as="geometry" />
        </mxCell>
        <mxCell id="0G1sZd40Yb9WgYaxsjde-97" value="2" style="edgeStyle=orthogonalEdgeStyle;rounded=0;orthogonalLoop=1;jettySize=auto;html=1;entryX=0.5;entryY=0;entryDx=0;entryDy=0;strokeColor=#000000;fontSize=18;fontColor=#FF3333;" edge="1" parent="1">
          <mxGeometry relative="1" as="geometry">
            <mxPoint x="163" y="410" as="sourcePoint" />
            <mxPoint x="163" y="480" as="targetPoint" />
          </mxGeometry>
        </mxCell>
        <mxCell id="0G1sZd40Yb9WgYaxsjde-9" value="gAuth" style="rounded=1;whiteSpace=wrap;html=1;fontSize=18;" vertex="1" parent="1">
          <mxGeometry x="110" y="350" width="120" height="60" as="geometry" />
        </mxCell>
        <mxCell id="0G1sZd40Yb9WgYaxsjde-98" value="&amp;nbsp;3回包" style="edgeStyle=orthogonalEdgeStyle;rounded=0;orthogonalLoop=1;jettySize=auto;html=1;exitX=0;exitY=0.5;exitDx=0;exitDy=0;entryX=0;entryY=0.5;entryDx=0;entryDy=0;strokeColor=#000000;fontSize=18;fontColor=#FF3333;" edge="1" parent="1" source="0G1sZd40Yb9WgYaxsjde-10" target="0G1sZd40Yb9WgYaxsjde-15">
          <mxGeometry relative="1" as="geometry">
            <Array as="points">
              <mxPoint x="60" y="510" />
              <mxPoint x="60" y="250" />
            </Array>
          </mxGeometry>
        </mxCell>
        <mxCell id="0G1sZd40Yb9WgYaxsjde-101" value="5.主从同步" style="edgeStyle=orthogonalEdgeStyle;rounded=0;orthogonalLoop=1;jettySize=auto;html=1;strokeColor=#000000;fontSize=18;fontColor=#FF3333;" edge="1" parent="1" source="0G1sZd40Yb9WgYaxsjde-10" target="0G1sZd40Yb9WgYaxsjde-20">
          <mxGeometry relative="1" as="geometry" />
        </mxCell>
        <mxCell id="0G1sZd40Yb9WgYaxsjde-10" value="gChat" style="rounded=1;whiteSpace=wrap;html=1;fontSize=18;" vertex="1" parent="1">
          <mxGeometry x="110" y="480" width="130" height="60" as="geometry" />
        </mxCell>
        <mxCell id="0G1sZd40Yb9WgYaxsjde-11" value="gChatDis" style="rounded=1;whiteSpace=wrap;html=1;fontSize=18;" vertex="1" parent="1">
          <mxGeometry x="314" y="630" width="120" height="60" as="geometry" />
        </mxCell>
        <mxCell id="0G1sZd40Yb9WgYaxsjde-15" value="imlink" style="rounded=1;whiteSpace=wrap;html=1;fontSize=18;" vertex="1" parent="1">
          <mxGeometry x="110" y="220" width="120" height="60" as="geometry" />
        </mxCell>
        <mxCell id="0G1sZd40Yb9WgYaxsjde-108" style="edgeStyle=orthogonalEdgeStyle;rounded=0;orthogonalLoop=1;jettySize=auto;html=1;entryX=0;entryY=0.5;entryDx=0;entryDy=0;strokeColor=#000000;fontSize=18;fontColor=#FF3333;" edge="1" parent="1" source="0G1sZd40Yb9WgYaxsjde-16" target="0G1sZd40Yb9WgYaxsjde-107">
          <mxGeometry relative="1" as="geometry" />
        </mxCell>
        <mxCell id="0G1sZd40Yb9WgYaxsjde-16" value="msgfront" style="rounded=1;whiteSpace=wrap;html=1;fontSize=18;" vertex="1" parent="1">
          <mxGeometry x="320" y="380" width="114" height="60" as="geometry" />
        </mxCell>
        <mxCell id="0G1sZd40Yb9WgYaxsjde-17" value="msgcache(消息缓存)" style="rounded=1;whiteSpace=wrap;html=1;fontSize=18;" vertex="1" parent="1">
          <mxGeometry x="320" y="555" width="120" height="60" as="geometry" />
        </mxCell>
        <mxCell id="0G1sZd40Yb9WgYaxsjde-18" value="gChatProxy" style="rounded=1;whiteSpace=wrap;html=1;fontSize=18;" vertex="1" parent="1">
          <mxGeometry x="110" y="830" width="120" height="60" as="geometry" />
        </mxCell>
        <mxCell id="0G1sZd40Yb9WgYaxsjde-19" value="gChatProxy" style="rounded=1;whiteSpace=wrap;html=1;fontSize=18;" vertex="1" parent="1">
          <mxGeometry x="507" y="630" width="120" height="60" as="geometry" />
        </mxCell>
        <mxCell id="0G1sZd40Yb9WgYaxsjde-116" style="edgeStyle=orthogonalEdgeStyle;rounded=0;orthogonalLoop=1;jettySize=auto;html=1;strokeColor=#000000;fontSize=18;fontColor=#000000;exitX=1;exitY=0.5;exitDx=0;exitDy=0;" edge="1" parent="1" source="0G1sZd40Yb9WgYaxsjde-20">
          <mxGeometry relative="1" as="geometry">
            <mxPoint x="507" y="510" as="targetPoint" />
            <mxPoint x="421" y="510" as="sourcePoint" />
          </mxGeometry>
        </mxCell>
        <mxCell id="0G1sZd40Yb9WgYaxsjde-20" value="gChatDis" style="rounded=1;whiteSpace=wrap;html=1;fontSize=18;" vertex="1" parent="1">
          <mxGeometry x="330" y="480" width="120" height="60" as="geometry" />
        </mxCell>
        <mxCell id="0G1sZd40Yb9WgYaxsjde-28" value="1" style="edgeStyle=orthogonalEdgeStyle;rounded=0;orthogonalLoop=1;jettySize=auto;html=1;fontSize=18;entryX=0.5;entryY=1;entryDx=0;entryDy=0;" edge="1" parent="1" source="0G1sZd40Yb9WgYaxsjde-23" target="0G1sZd40Yb9WgYaxsjde-24">
          <mxGeometry relative="1" as="geometry">
            <mxPoint x="190" y="1270" as="targetPoint" />
            <Array as="points">
              <mxPoint x="190" y="1360" />
            </Array>
          </mxGeometry>
        </mxCell>
        <mxCell id="0G1sZd40Yb9WgYaxsjde-29" value="2" style="edgeStyle=orthogonalEdgeStyle;rounded=0;orthogonalLoop=1;jettySize=auto;html=1;fontSize=18;entryX=0.583;entryY=1;entryDx=0;entryDy=0;entryPerimeter=0;" edge="1" parent="1" source="0G1sZd40Yb9WgYaxsjde-23" target="0G1sZd40Yb9WgYaxsjde-25">
          <mxGeometry relative="1" as="geometry">
            <mxPoint x="420" y="1270" as="targetPoint" />
            <Array as="points">
              <mxPoint x="400" y="1360" />
            </Array>
          </mxGeometry>
        </mxCell>
        <mxCell id="0G1sZd40Yb9WgYaxsjde-23" value="imlink" style="rounded=1;whiteSpace=wrap;html=1;fontSize=18;" vertex="1" parent="1">
          <mxGeometry x="240" y="1330" width="120" height="60" as="geometry" />
        </mxCell>
        <mxCell id="0G1sZd40Yb9WgYaxsjde-30" value="1.1无缓存或失效" style="edgeStyle=orthogonalEdgeStyle;rounded=0;orthogonalLoop=1;jettySize=auto;html=1;entryX=0.5;entryY=1;entryDx=0;entryDy=0;entryPerimeter=0;fontSize=18;" edge="1" parent="1" source="0G1sZd40Yb9WgYaxsjde-24" target="0G1sZd40Yb9WgYaxsjde-26">
          <mxGeometry relative="1" as="geometry">
            <Array as="points">
              <mxPoint x="200" y="1060" />
              <mxPoint x="200" y="1060" />
            </Array>
          </mxGeometry>
        </mxCell>
        <mxCell id="0G1sZd40Yb9WgYaxsjde-24" value="gmsgreadInfo" style="rounded=1;whiteSpace=wrap;html=1;fontSize=18;" vertex="1" parent="1">
          <mxGeometry x="130" y="1200" width="120" height="80" as="geometry" />
        </mxCell>
        <mxCell id="0G1sZd40Yb9WgYaxsjde-37" value="2.1无缓存或失效" style="edgeStyle=orthogonalEdgeStyle;rounded=0;orthogonalLoop=1;jettySize=auto;html=1;exitX=0.5;exitY=0;exitDx=0;exitDy=0;entryX=0.5;entryY=1;entryDx=0;entryDy=0;fontSize=18;" edge="1" parent="1">
          <mxGeometry relative="1" as="geometry">
            <mxPoint x="397" y="1200" as="sourcePoint" />
            <mxPoint x="397" y="1140" as="targetPoint" />
          </mxGeometry>
        </mxCell>
        <mxCell id="0G1sZd40Yb9WgYaxsjde-25" value="gmsgcache" style="rounded=1;whiteSpace=wrap;html=1;fontSize=18;" vertex="1" parent="1">
          <mxGeometry x="330" y="1200" width="120" height="70" as="geometry" />
        </mxCell>
        <mxCell id="0G1sZd40Yb9WgYaxsjde-26" value="全存储" style="shape=cylinder3;whiteSpace=wrap;html=1;boundedLbl=1;backgroundOutline=1;size=15;fontSize=18;" vertex="1" parent="1">
          <mxGeometry x="170" y="930" width="60" height="80" as="geometry" />
        </mxCell>
        <mxCell id="0G1sZd40Yb9WgYaxsjde-38" style="edgeStyle=orthogonalEdgeStyle;rounded=0;orthogonalLoop=1;jettySize=auto;html=1;entryX=0.5;entryY=1;entryDx=0;entryDy=0;fontSize=18;" edge="1" parent="1">
          <mxGeometry relative="1" as="geometry">
            <mxPoint x="396" y="1070" as="sourcePoint" />
            <mxPoint x="396" y="1020" as="targetPoint" />
          </mxGeometry>
        </mxCell>
        <mxCell id="0G1sZd40Yb9WgYaxsjde-35" value="msgfront" style="rounded=1;whiteSpace=wrap;html=1;fontSize=18;" vertex="1" parent="1">
          <mxGeometry x="330" y="1070" width="120" height="70" as="geometry" />
        </mxCell>
        <mxCell id="0G1sZd40Yb9WgYaxsjde-39" style="edgeStyle=orthogonalEdgeStyle;rounded=0;orthogonalLoop=1;jettySize=auto;html=1;fontSize=18;" edge="1" parent="1" source="0G1sZd40Yb9WgYaxsjde-36">
          <mxGeometry relative="1" as="geometry">
            <mxPoint x="230" y="985" as="targetPoint" />
          </mxGeometry>
        </mxCell>
        <mxCell id="0G1sZd40Yb9WgYaxsjde-36" value="msgread" style="rounded=1;whiteSpace=wrap;html=1;fontSize=18;" vertex="1" parent="1">
          <mxGeometry x="330" y="950" width="120" height="70" as="geometry" />
        </mxCell>
        <mxCell id="0G1sZd40Yb9WgYaxsjde-43" value="imlinkd" style="rounded=1;whiteSpace=wrap;html=1;fontSize=18;" vertex="1" parent="1">
          <mxGeometry x="120" y="1820" width="120" height="60" as="geometry" />
        </mxCell>
        <mxCell id="0G1sZd40Yb9WgYaxsjde-47" style="edgeStyle=orthogonalEdgeStyle;rounded=0;orthogonalLoop=1;jettySize=auto;html=1;exitX=0.5;exitY=0;exitDx=0;exitDy=0;entryX=0.5;entryY=1;entryDx=0;entryDy=0;fontSize=18;" edge="1" parent="1" source="0G1sZd40Yb9WgYaxsjde-44" target="0G1sZd40Yb9WgYaxsjde-45">
          <mxGeometry relative="1" as="geometry" />
        </mxCell>
        <mxCell id="0G1sZd40Yb9WgYaxsjde-44" value="imlinkmsgread" style="rounded=1;whiteSpace=wrap;html=1;fontSize=18;" vertex="1" parent="1">
          <mxGeometry x="120" y="1694" width="120" height="60" as="geometry" />
        </mxCell>
        <mxCell id="0G1sZd40Yb9WgYaxsjde-49" style="edgeStyle=orthogonalEdgeStyle;rounded=0;orthogonalLoop=1;jettySize=auto;html=1;entryX=0.5;entryY=1;entryDx=0;entryDy=0;entryPerimeter=0;fontSize=18;" edge="1" parent="1" source="0G1sZd40Yb9WgYaxsjde-45" target="0G1sZd40Yb9WgYaxsjde-48">
          <mxGeometry relative="1" as="geometry" />
        </mxCell>
        <mxCell id="0G1sZd40Yb9WgYaxsjde-45" value="gmsgreadInfo" style="rounded=1;whiteSpace=wrap;html=1;fontSize=18;" vertex="1" parent="1">
          <mxGeometry x="115" y="1570" width="130" height="60" as="geometry" />
        </mxCell>
        <mxCell id="0G1sZd40Yb9WgYaxsjde-46" value="" style="endArrow=classic;html=1;rounded=0;fontSize=18;entryX=0.5;entryY=1;entryDx=0;entryDy=0;exitX=0.5;exitY=0;exitDx=0;exitDy=0;" edge="1" parent="1" source="0G1sZd40Yb9WgYaxsjde-43" target="0G1sZd40Yb9WgYaxsjde-44">
          <mxGeometry width="50" height="50" relative="1" as="geometry">
            <mxPoint x="170" y="1820" as="sourcePoint" />
            <mxPoint x="220" y="1770" as="targetPoint" />
          </mxGeometry>
        </mxCell>
        <mxCell id="0G1sZd40Yb9WgYaxsjde-48" value="全存储" style="shape=cylinder3;whiteSpace=wrap;html=1;boundedLbl=1;backgroundOutline=1;size=15;fontSize=18;" vertex="1" parent="1">
          <mxGeometry x="150" y="1430" width="60" height="80" as="geometry" />
        </mxCell>
        <mxCell id="0G1sZd40Yb9WgYaxsjde-50" value="imlinkd" style="rounded=1;whiteSpace=wrap;html=1;fontSize=18;" vertex="1" parent="1">
          <mxGeometry x="130" y="2278" width="120" height="60" as="geometry" />
        </mxCell>
        <mxCell id="0G1sZd40Yb9WgYaxsjde-55" style="edgeStyle=orthogonalEdgeStyle;rounded=0;orthogonalLoop=1;jettySize=auto;html=1;entryX=0.5;entryY=1;entryDx=0;entryDy=0;fontSize=18;" edge="1" parent="1" source="0G1sZd40Yb9WgYaxsjde-51" target="0G1sZd40Yb9WgYaxsjde-52">
          <mxGeometry relative="1" as="geometry" />
        </mxCell>
        <mxCell id="0G1sZd40Yb9WgYaxsjde-51" value="imlinkuidfid" style="rounded=1;whiteSpace=wrap;html=1;fontSize=18;" vertex="1" parent="1">
          <mxGeometry x="125" y="2150" width="120" height="60" as="geometry" />
        </mxCell>
        <mxCell id="0G1sZd40Yb9WgYaxsjde-52" value="gChatProxy" style="rounded=1;whiteSpace=wrap;html=1;fontSize=18;" vertex="1" parent="1">
          <mxGeometry x="125" y="2020" width="120" height="60" as="geometry" />
        </mxCell>
        <mxCell id="0G1sZd40Yb9WgYaxsjde-54" value="" style="endArrow=classic;html=1;rounded=0;fontSize=18;entryX=0.5;entryY=1;entryDx=0;entryDy=0;exitX=0.458;exitY=0.033;exitDx=0;exitDy=0;exitPerimeter=0;" edge="1" parent="1" source="0G1sZd40Yb9WgYaxsjde-50" target="0G1sZd40Yb9WgYaxsjde-51">
          <mxGeometry width="50" height="50" relative="1" as="geometry">
            <mxPoint x="185" y="2270" as="sourcePoint" />
            <mxPoint x="210" y="2230" as="targetPoint" />
          </mxGeometry>
        </mxCell>
        <mxCell id="0G1sZd40Yb9WgYaxsjde-56" value="" style="ellipse;whiteSpace=wrap;html=1;fontSize=18;" vertex="1" parent="1">
          <mxGeometry x="400" y="1590" width="160" height="80" as="geometry" />
        </mxCell>
        <mxCell id="0G1sZd40Yb9WgYaxsjde-58" value="f1" style="text;html=1;align=center;verticalAlign=middle;resizable=0;points=[];autosize=1;strokeColor=none;fillColor=none;fontSize=18;" vertex="1" parent="1">
          <mxGeometry x="394" y="1570" width="40" height="40" as="geometry" />
        </mxCell>
        <mxCell id="0G1sZd40Yb9WgYaxsjde-59" value="f2" style="text;html=1;strokeColor=none;fillColor=none;align=center;verticalAlign=middle;whiteSpace=wrap;rounded=0;fontSize=18;" vertex="1" parent="1">
          <mxGeometry x="540" y="1570" width="60" height="30" as="geometry" />
        </mxCell>
        <mxCell id="0G1sZd40Yb9WgYaxsjde-60" value="" style="rounded=0;whiteSpace=wrap;html=1;fontSize=18;" vertex="1" parent="1">
          <mxGeometry x="630" y="2140" width="60" height="70" as="geometry" />
        </mxCell>
        <mxCell id="0G1sZd40Yb9WgYaxsjde-61" value="" style="rounded=0;whiteSpace=wrap;html=1;fontSize=18;" vertex="1" parent="1">
          <mxGeometry x="690" y="2140" width="60" height="70" as="geometry" />
        </mxCell>
        <mxCell id="0G1sZd40Yb9WgYaxsjde-62" value="" style="rounded=0;whiteSpace=wrap;html=1;fontSize=18;" vertex="1" parent="1">
          <mxGeometry x="750" y="2140" width="60" height="70" as="geometry" />
        </mxCell>
        <mxCell id="0G1sZd40Yb9WgYaxsjde-64" value="" style="endArrow=classic;html=1;rounded=0;fontSize=18;" edge="1" parent="1">
          <mxGeometry width="50" height="50" relative="1" as="geometry">
            <mxPoint x="810" y="2153" as="sourcePoint" />
            <mxPoint x="890" y="2153" as="targetPoint" />
          </mxGeometry>
        </mxCell>
        <mxCell id="0G1sZd40Yb9WgYaxsjde-65" value="a" style="text;html=1;strokeColor=none;fillColor=none;align=center;verticalAlign=middle;whiteSpace=wrap;rounded=0;fontSize=18;" vertex="1" parent="1">
          <mxGeometry x="877" y="2136" width="60" height="30" as="geometry" />
        </mxCell>
        <mxCell id="0G1sZd40Yb9WgYaxsjde-66" value="" style="endArrow=classic;html=1;rounded=0;fontSize=18;" edge="1" parent="1">
          <mxGeometry width="50" height="50" relative="1" as="geometry">
            <mxPoint x="811" y="2186" as="sourcePoint" />
            <mxPoint x="891" y="2186" as="targetPoint" />
          </mxGeometry>
        </mxCell>
        <mxCell id="0G1sZd40Yb9WgYaxsjde-67" value="b" style="text;html=1;strokeColor=none;fillColor=none;align=center;verticalAlign=middle;whiteSpace=wrap;rounded=0;fontSize=18;" vertex="1" parent="1">
          <mxGeometry x="878" y="2170" width="60" height="30" as="geometry" />
        </mxCell>
        <mxCell id="0G1sZd40Yb9WgYaxsjde-68" value="" style="rounded=0;whiteSpace=wrap;html=1;fontSize=18;" vertex="1" parent="1">
          <mxGeometry x="1010" y="2135" width="60" height="69" as="geometry" />
        </mxCell>
        <mxCell id="0G1sZd40Yb9WgYaxsjde-69" value="" style="rounded=0;whiteSpace=wrap;html=1;fontSize=18;" vertex="1" parent="1">
          <mxGeometry x="1070" y="2135" width="60" height="69" as="geometry" />
        </mxCell>
        <mxCell id="0G1sZd40Yb9WgYaxsjde-70" value="" style="rounded=0;whiteSpace=wrap;html=1;fontSize=18;" vertex="1" parent="1">
          <mxGeometry x="1106" y="2135" width="60" height="69" as="geometry" />
        </mxCell>
        <mxCell id="0G1sZd40Yb9WgYaxsjde-71" value="" style="endArrow=classic;html=1;rounded=0;fontSize=18;" edge="1" parent="1">
          <mxGeometry width="50" height="50" relative="1" as="geometry">
            <mxPoint x="1168" y="2140" as="sourcePoint" />
            <mxPoint x="1248" y="2140" as="targetPoint" />
          </mxGeometry>
        </mxCell>
        <mxCell id="0G1sZd40Yb9WgYaxsjde-72" value="a" style="text;html=1;strokeColor=none;fillColor=none;align=center;verticalAlign=middle;whiteSpace=wrap;rounded=0;fontSize=18;" vertex="1" parent="1">
          <mxGeometry x="1228" y="2120" width="60" height="30" as="geometry" />
        </mxCell>
        <mxCell id="0G1sZd40Yb9WgYaxsjde-73" value="" style="endArrow=classic;html=1;rounded=0;fontSize=18;fillColor=#f8cecc;strokeColor=#FF3333;" edge="1" parent="1">
          <mxGeometry width="50" height="50" relative="1" as="geometry">
            <mxPoint x="1167" y="2196" as="sourcePoint" />
            <mxPoint x="1247" y="2196" as="targetPoint" />
          </mxGeometry>
        </mxCell>
        <mxCell id="0G1sZd40Yb9WgYaxsjde-74" value="b" style="text;html=1;strokeColor=none;fillColor=none;align=center;verticalAlign=middle;whiteSpace=wrap;rounded=0;fontSize=18;" vertex="1" parent="1">
          <mxGeometry x="1230" y="2154.5" width="60" height="30" as="geometry" />
        </mxCell>
        <mxCell id="0G1sZd40Yb9WgYaxsjde-75" value="" style="endArrow=classic;html=1;rounded=0;fontSize=18;" edge="1" parent="1">
          <mxGeometry width="50" height="50" relative="1" as="geometry">
            <mxPoint x="1168" y="2166.7247706422017" as="sourcePoint" />
            <mxPoint x="1247" y="2166" as="targetPoint" />
          </mxGeometry>
        </mxCell>
        <mxCell id="0G1sZd40Yb9WgYaxsjde-76" value="&lt;font color=&quot;#ff3333&quot;&gt;c(其它分组成员也订阅)&lt;/font&gt;" style="text;html=1;strokeColor=none;fillColor=none;align=center;verticalAlign=middle;whiteSpace=wrap;rounded=0;fontSize=18;" vertex="1" parent="1">
          <mxGeometry x="1241" y="2184.5" width="139" height="30" as="geometry" />
        </mxCell>
        <mxCell id="0G1sZd40Yb9WgYaxsjde-77" style="edgeStyle=orthogonalEdgeStyle;rounded=0;orthogonalLoop=1;jettySize=auto;html=1;exitX=0.5;exitY=1;exitDx=0;exitDy=0;fontSize=18;" edge="1" parent="1" source="0G1sZd40Yb9WgYaxsjde-74" target="0G1sZd40Yb9WgYaxsjde-74">
          <mxGeometry relative="1" as="geometry" />
        </mxCell>
        <mxCell id="0G1sZd40Yb9WgYaxsjde-79" value="f1(a,b)" style="rounded=0;whiteSpace=wrap;html=1;fontSize=18;" vertex="1" parent="1">
          <mxGeometry x="380" y="2090" width="120" height="60" as="geometry" />
        </mxCell>
        <mxCell id="0G1sZd40Yb9WgYaxsjde-80" value="f2(a,c)" style="rounded=0;whiteSpace=wrap;html=1;fontSize=18;" vertex="1" parent="1">
          <mxGeometry x="380" y="2150" width="120" height="60" as="geometry" />
        </mxCell>
        <mxCell id="0G1sZd40Yb9WgYaxsjde-81" value="当前分组f1消息队列 订阅关系" style="text;html=1;strokeColor=none;fillColor=none;align=center;verticalAlign=middle;whiteSpace=wrap;rounded=0;fontSize=18;" vertex="1" parent="1">
          <mxGeometry x="640" y="2100" width="170" height="30" as="geometry" />
        </mxCell>
        <mxCell id="0G1sZd40Yb9WgYaxsjde-83" value="discord下分组f1消息队列订阅关系" style="text;html=1;strokeColor=none;fillColor=none;align=center;verticalAlign=middle;whiteSpace=wrap;rounded=0;fontSize=18;" vertex="1" parent="1">
          <mxGeometry x="996" y="2100" width="180" height="30" as="geometry" />
        </mxCell>
        <mxCell id="0G1sZd40Yb9WgYaxsjde-84" value="群g1" style="text;html=1;strokeColor=none;fillColor=none;align=center;verticalAlign=middle;whiteSpace=wrap;rounded=0;fontSize=18;" vertex="1" parent="1">
          <mxGeometry x="380" y="2050" width="60" height="30" as="geometry" />
        </mxCell>
        <mxCell id="0G1sZd40Yb9WgYaxsjde-85" value="" style="rounded=0;whiteSpace=wrap;html=1;fontSize=18;" vertex="1" parent="1">
          <mxGeometry x="986" y="2135" width="60" height="69" as="geometry" />
        </mxCell>
        <mxCell id="0G1sZd40Yb9WgYaxsjde-86" value="" style="rounded=0;whiteSpace=wrap;html=1;fontSize=18;" vertex="1" parent="1">
          <mxGeometry x="1046" y="2135" width="60" height="69" as="geometry" />
        </mxCell>
        <mxCell id="0G1sZd40Yb9WgYaxsjde-96" value="1" style="endArrow=classic;html=1;rounded=0;strokeColor=#000000;fontSize=18;fontColor=#FF3333;entryX=0.405;entryY=0.02;entryDx=0;entryDy=0;entryPerimeter=0;exitX=0.405;exitY=1.049;exitDx=0;exitDy=0;exitPerimeter=0;" edge="1" parent="1">
          <mxGeometry width="50" height="50" relative="1" as="geometry">
            <mxPoint x="163.5999999999999" y="282.94000000000005" as="sourcePoint" />
            <mxPoint x="163.5999999999999" y="351.20000000000005" as="targetPoint" />
          </mxGeometry>
        </mxCell>
        <mxCell id="0G1sZd40Yb9WgYaxsjde-102" value="6" style="endArrow=classic;html=1;rounded=0;strokeColor=#000000;fontSize=18;fontColor=#FF3333;exitX=1;exitY=0.75;exitDx=0;exitDy=0;entryX=0;entryY=0.417;entryDx=0;entryDy=0;entryPerimeter=0;" edge="1" parent="1" source="0G1sZd40Yb9WgYaxsjde-10" target="0G1sZd40Yb9WgYaxsjde-17">
          <mxGeometry width="50" height="50" relative="1" as="geometry">
            <mxPoint x="240" y="540" as="sourcePoint" />
            <mxPoint x="310" y="570" as="targetPoint" />
          </mxGeometry>
        </mxCell>
        <mxCell id="0G1sZd40Yb9WgYaxsjde-104" value="7.在线下发" style="endArrow=classic;html=1;rounded=0;strokeColor=#000000;fontSize=18;fontColor=#FF3333;exitX=1;exitY=1;exitDx=0;exitDy=0;" edge="1" parent="1" source="0G1sZd40Yb9WgYaxsjde-10">
          <mxGeometry width="50" height="50" relative="1" as="geometry">
            <mxPoint x="160" y="540" as="sourcePoint" />
            <mxPoint x="310" y="660" as="targetPoint" />
          </mxGeometry>
        </mxCell>
        <mxCell id="0G1sZd40Yb9WgYaxsjde-105" value="4.持久化" style="endArrow=classic;html=1;rounded=0;strokeColor=#000000;fontSize=18;fontColor=#FF3333;entryX=0;entryY=0.25;entryDx=0;entryDy=0;" edge="1" parent="1" target="0G1sZd40Yb9WgYaxsjde-16">
          <mxGeometry width="50" height="50" relative="1" as="geometry">
            <mxPoint x="240" y="480" as="sourcePoint" />
            <mxPoint x="290" y="430" as="targetPoint" />
          </mxGeometry>
        </mxCell>
        <mxCell id="0G1sZd40Yb9WgYaxsjde-109" style="edgeStyle=orthogonalEdgeStyle;rounded=0;orthogonalLoop=1;jettySize=auto;html=1;strokeColor=#000000;fontSize=18;fontColor=#FF3333;entryX=0;entryY=0.5;entryDx=0;entryDy=0;entryPerimeter=0;" edge="1" parent="1" target="0G1sZd40Yb9WgYaxsjde-110">
          <mxGeometry relative="1" as="geometry">
            <mxPoint x="810" y="410" as="targetPoint" />
            <mxPoint x="754" y="410" as="sourcePoint" />
          </mxGeometry>
        </mxCell>
        <mxCell id="0G1sZd40Yb9WgYaxsjde-122" style="edgeStyle=orthogonalEdgeStyle;rounded=0;orthogonalLoop=1;jettySize=auto;html=1;strokeColor=#000000;fontSize=18;fontColor=#000000;" edge="1" parent="1" source="0G1sZd40Yb9WgYaxsjde-107">
          <mxGeometry relative="1" as="geometry">
            <mxPoint x="660" y="410" as="targetPoint" />
          </mxGeometry>
        </mxCell>
        <mxCell id="0G1sZd40Yb9WgYaxsjde-107" value="msgcheck" style="rounded=1;whiteSpace=wrap;html=1;fontSize=18;" vertex="1" parent="1">
          <mxGeometry x="486" y="380" width="114" height="60" as="geometry" />
        </mxCell>
        <mxCell id="0G1sZd40Yb9WgYaxsjde-110" value="&lt;font color=&quot;#000000&quot;&gt;全存储&lt;/font&gt;" style="shape=cylinder3;whiteSpace=wrap;html=1;boundedLbl=1;backgroundOutline=1;size=15;fontSize=18;fontColor=#FF3333;" vertex="1" parent="1">
          <mxGeometry x="818" y="370" width="60" height="80" as="geometry" />
        </mxCell>
        <mxCell id="0G1sZd40Yb9WgYaxsjde-111" value="" style="endArrow=classic;html=1;rounded=0;strokeColor=#000000;fontSize=18;fontColor=#FF3333;entryX=0;entryY=0.5;entryDx=0;entryDy=0;exitX=1;exitY=0.5;exitDx=0;exitDy=0;" edge="1" parent="1" source="0G1sZd40Yb9WgYaxsjde-11" target="0G1sZd40Yb9WgYaxsjde-19">
          <mxGeometry width="50" height="50" relative="1" as="geometry">
            <mxPoint x="430" y="680" as="sourcePoint" />
            <mxPoint x="480" y="630" as="targetPoint" />
          </mxGeometry>
        </mxCell>
        <mxCell id="0G1sZd40Yb9WgYaxsjde-114" value="&lt;font color=&quot;#000000&quot;&gt;linkd&lt;/font&gt;" style="rounded=1;whiteSpace=wrap;html=1;fontSize=18;fontColor=#FF3333;" vertex="1" parent="1">
          <mxGeometry x="690" y="630" width="120" height="60" as="geometry" />
        </mxCell>
        <mxCell id="0G1sZd40Yb9WgYaxsjde-115" value="" style="endArrow=classic;html=1;rounded=0;strokeColor=#000000;fontSize=18;fontColor=#000000;entryX=0;entryY=0.5;entryDx=0;entryDy=0;" edge="1" parent="1" target="0G1sZd40Yb9WgYaxsjde-114">
          <mxGeometry width="50" height="50" relative="1" as="geometry">
            <mxPoint x="630" y="660" as="sourcePoint" />
            <mxPoint x="680" y="610" as="targetPoint" />
          </mxGeometry>
        </mxCell>
        <mxCell id="0G1sZd40Yb9WgYaxsjde-117" value="gChat" style="rounded=1;whiteSpace=wrap;html=1;fontSize=18;" vertex="1" parent="1">
          <mxGeometry x="505" y="480" width="130" height="60" as="geometry" />
        </mxCell>
        <mxCell id="0G1sZd40Yb9WgYaxsjde-118" value="msgwrite" style="rounded=1;whiteSpace=wrap;html=1;fontSize=18;" vertex="1" parent="1">
          <mxGeometry x="663" y="380" width="114" height="60" as="geometry" />
        </mxCell>
        <mxCell id="0G1sZd40Yb9WgYaxsjde-125" value="imlink" style="rounded=1;whiteSpace=wrap;html=1;fontSize=18;" vertex="1" parent="1">
          <mxGeometry x="110" y="220" width="120" height="60" as="geometry" />
        </mxCell>
        <mxCell id="0G1sZd40Yb9WgYaxsjde-126" value="gAuth" style="rounded=1;whiteSpace=wrap;html=1;fontSize=18;" vertex="1" parent="1">
          <mxGeometry x="110" y="350" width="120" height="60" as="geometry" />
        </mxCell>
        <mxCell id="0G1sZd40Yb9WgYaxsjde-127" value="gChat" style="rounded=1;whiteSpace=wrap;html=1;fontSize=18;" vertex="1" parent="1">
          <mxGeometry x="110" y="480" width="130" height="60" as="geometry" />
        </mxCell>
        <mxCell id="0G1sZd40Yb9WgYaxsjde-128" value="msgfront" style="rounded=1;whiteSpace=wrap;html=1;fontSize=18;" vertex="1" parent="1">
          <mxGeometry x="320" y="380" width="114" height="60" as="geometry" />
        </mxCell>
        <mxCell id="0G1sZd40Yb9WgYaxsjde-129" value="gChatDis" style="rounded=1;whiteSpace=wrap;html=1;fontSize=18;" vertex="1" parent="1">
          <mxGeometry x="330" y="480" width="120" height="60" as="geometry" />
        </mxCell>
        <mxCell id="0G1sZd40Yb9WgYaxsjde-130" value="msgcache(消息缓存)" style="rounded=1;whiteSpace=wrap;html=1;fontSize=18;" vertex="1" parent="1">
          <mxGeometry x="320" y="555" width="120" height="60" as="geometry" />
        </mxCell>
        <mxCell id="0G1sZd40Yb9WgYaxsjde-131" value="gChatDis" style="rounded=1;whiteSpace=wrap;html=1;fontSize=18;" vertex="1" parent="1">
          <mxGeometry x="314" y="630" width="120" height="60" as="geometry" />
        </mxCell>
        <mxCell id="0G1sZd40Yb9WgYaxsjde-148" value="2" style="edgeStyle=orthogonalEdgeStyle;rounded=0;orthogonalLoop=1;jettySize=auto;html=1;entryX=0.5;entryY=0;entryDx=0;entryDy=0;strokeColor=#000000;fontSize=18;fontColor=#FF3333;" edge="1" parent="1">
          <mxGeometry relative="1" as="geometry">
            <mxPoint x="1063" y="420" as="sourcePoint" />
            <mxPoint x="1063" y="490" as="targetPoint" />
          </mxGeometry>
        </mxCell>
        <mxCell id="0G1sZd40Yb9WgYaxsjde-149" value="&amp;nbsp;4回包" style="edgeStyle=orthogonalEdgeStyle;rounded=0;orthogonalLoop=1;jettySize=auto;html=1;exitX=0;exitY=0.5;exitDx=0;exitDy=0;entryX=0;entryY=0.5;entryDx=0;entryDy=0;strokeColor=#000000;fontSize=18;fontColor=#FF3333;" edge="1" parent="1">
          <mxGeometry relative="1" as="geometry">
            <mxPoint x="1010" y="520" as="sourcePoint" />
            <mxPoint x="1010" y="260" as="targetPoint" />
            <Array as="points">
              <mxPoint x="960" y="520" />
              <mxPoint x="960" y="260" />
            </Array>
          </mxGeometry>
        </mxCell>
        <mxCell id="0G1sZd40Yb9WgYaxsjde-151" style="edgeStyle=orthogonalEdgeStyle;rounded=0;orthogonalLoop=1;jettySize=auto;html=1;entryX=0;entryY=0.5;entryDx=0;entryDy=0;strokeColor=#000000;fontSize=18;fontColor=#FF3333;" edge="1" parent="1">
          <mxGeometry relative="1" as="geometry">
            <mxPoint x="1353" y="420" as="sourcePoint" />
            <mxPoint x="1405" y="420" as="targetPoint" />
          </mxGeometry>
        </mxCell>
        <mxCell id="0G1sZd40Yb9WgYaxsjde-173" value="合并下发?" style="edgeStyle=orthogonalEdgeStyle;rounded=0;orthogonalLoop=1;jettySize=auto;html=1;entryX=0;entryY=0.5;entryDx=0;entryDy=0;strokeColor=#000000;fontSize=18;fontColor=#FF6666;" edge="1" parent="1" source="0G1sZd40Yb9WgYaxsjde-152" target="0G1sZd40Yb9WgYaxsjde-159">
          <mxGeometry relative="1" as="geometry" />
        </mxCell>
        <mxCell id="0G1sZd40Yb9WgYaxsjde-152" value="gChatProxy" style="rounded=1;whiteSpace=wrap;html=1;fontSize=18;" vertex="1" parent="1">
          <mxGeometry x="1443" y="675" width="120" height="60" as="geometry" />
        </mxCell>
        <mxCell id="0G1sZd40Yb9WgYaxsjde-153" style="edgeStyle=orthogonalEdgeStyle;rounded=0;orthogonalLoop=1;jettySize=auto;html=1;strokeColor=#000000;fontSize=18;fontColor=#000000;exitX=1;exitY=0.5;exitDx=0;exitDy=0;" edge="1" parent="1">
          <mxGeometry relative="1" as="geometry">
            <mxPoint x="1407" y="520" as="targetPoint" />
            <mxPoint x="1350" y="520" as="sourcePoint" />
          </mxGeometry>
        </mxCell>
        <mxCell id="0G1sZd40Yb9WgYaxsjde-154" value="1" style="endArrow=classic;html=1;rounded=0;strokeColor=#000000;fontSize=18;fontColor=#FF3333;entryX=0.405;entryY=0.02;entryDx=0;entryDy=0;entryPerimeter=0;exitX=0.405;exitY=1.049;exitDx=0;exitDy=0;exitPerimeter=0;" edge="1" parent="1">
          <mxGeometry width="50" height="50" relative="1" as="geometry">
            <mxPoint x="1063.6" y="292.94000000000005" as="sourcePoint" />
            <mxPoint x="1063.6" y="361.20000000000005" as="targetPoint" />
          </mxGeometry>
        </mxCell>
        <mxCell id="0G1sZd40Yb9WgYaxsjde-155" value="7.缓存" style="endArrow=classic;html=1;rounded=0;strokeColor=#000000;fontSize=18;fontColor=#FF3333;entryX=0;entryY=0.417;entryDx=0;entryDy=0;entryPerimeter=0;exitX=1;exitY=0.25;exitDx=0;exitDy=0;" edge="1" parent="1">
          <mxGeometry width="50" height="50" relative="1" as="geometry">
            <mxPoint x="1135" y="649" as="sourcePoint" />
            <mxPoint x="1254" y="609" as="targetPoint" />
          </mxGeometry>
        </mxCell>
        <mxCell id="0G1sZd40Yb9WgYaxsjde-156" value="8.在线下发" style="endArrow=classic;html=1;rounded=0;strokeColor=#000000;fontSize=18;fontColor=#FF3333;exitX=1;exitY=1;exitDx=0;exitDy=0;" edge="1" parent="1">
          <mxGeometry width="50" height="50" relative="1" as="geometry">
            <mxPoint x="1135" y="655" as="sourcePoint" />
            <mxPoint x="1250" y="720" as="targetPoint" />
          </mxGeometry>
        </mxCell>
        <mxCell id="0G1sZd40Yb9WgYaxsjde-157" value="5.持久化" style="endArrow=classic;html=1;rounded=0;strokeColor=#000000;fontSize=18;fontColor=#FF3333;exitX=0.882;exitY=-0.044;exitDx=0;exitDy=0;exitPerimeter=0;entryX=0;entryY=0.25;entryDx=0;entryDy=0;" edge="1" parent="1" source="0G1sZd40Yb9WgYaxsjde-168" target="0G1sZd40Yb9WgYaxsjde-164">
          <mxGeometry width="50" height="50" relative="1" as="geometry">
            <mxPoint x="1140" y="630" as="sourcePoint" />
            <mxPoint x="1240" y="390" as="targetPoint" />
          </mxGeometry>
        </mxCell>
        <mxCell id="0G1sZd40Yb9WgYaxsjde-158" value="&lt;font color=&quot;#000000&quot;&gt;全存储&lt;/font&gt;" style="shape=cylinder3;whiteSpace=wrap;html=1;boundedLbl=1;backgroundOutline=1;size=15;fontSize=18;fontColor=#FF3333;" vertex="1" parent="1">
          <mxGeometry x="1770" y="380" width="60" height="80" as="geometry" />
        </mxCell>
        <mxCell id="0G1sZd40Yb9WgYaxsjde-159" value="&lt;font color=&quot;#000000&quot;&gt;linkd&lt;/font&gt;" style="rounded=1;whiteSpace=wrap;html=1;fontSize=18;fontColor=#FF3333;" vertex="1" parent="1">
          <mxGeometry x="1650" y="675" width="120" height="60" as="geometry" />
        </mxCell>
        <mxCell id="0G1sZd40Yb9WgYaxsjde-176" value="批量写?" style="edgeStyle=orthogonalEdgeStyle;rounded=0;orthogonalLoop=1;jettySize=auto;html=1;entryX=0;entryY=0.5;entryDx=0;entryDy=0;entryPerimeter=0;strokeColor=#b85450;fontSize=18;fontColor=#FF6666;fillColor=#f8cecc;" edge="1" parent="1" source="0G1sZd40Yb9WgYaxsjde-160" target="0G1sZd40Yb9WgYaxsjde-158">
          <mxGeometry relative="1" as="geometry" />
        </mxCell>
        <mxCell id="0G1sZd40Yb9WgYaxsjde-160" value="msgwrite" style="rounded=1;whiteSpace=wrap;html=1;fontSize=18;" vertex="1" parent="1">
          <mxGeometry x="1580" y="390" width="114" height="60" as="geometry" />
        </mxCell>
        <mxCell id="0G1sZd40Yb9WgYaxsjde-161" value="imlink" style="rounded=1;whiteSpace=wrap;html=1;fontSize=18;" vertex="1" parent="1">
          <mxGeometry x="1010" y="230" width="120" height="60" as="geometry" />
        </mxCell>
        <mxCell id="0G1sZd40Yb9WgYaxsjde-162" value="gAuth" style="rounded=1;whiteSpace=wrap;html=1;fontSize=18;" vertex="1" parent="1">
          <mxGeometry x="1010" y="360" width="120" height="60" as="geometry" />
        </mxCell>
        <mxCell id="0G1sZd40Yb9WgYaxsjde-169" value="3" style="edgeStyle=orthogonalEdgeStyle;rounded=0;orthogonalLoop=1;jettySize=auto;html=1;entryX=0.5;entryY=0;entryDx=0;entryDy=0;strokeColor=#000000;fontSize=18;fontColor=#000000;" edge="1" parent="1">
          <mxGeometry relative="1" as="geometry">
            <mxPoint x="1065" y="550" as="sourcePoint" />
            <mxPoint x="1065" y="615" as="targetPoint" />
          </mxGeometry>
        </mxCell>
        <mxCell id="0G1sZd40Yb9WgYaxsjde-163" value="gChat" style="rounded=1;whiteSpace=wrap;html=1;fontSize=18;" vertex="1" parent="1">
          <mxGeometry x="1010" y="490" width="130" height="60" as="geometry" />
        </mxCell>
        <mxCell id="0G1sZd40Yb9WgYaxsjde-164" value="msgfront" style="rounded=1;whiteSpace=wrap;html=1;fontSize=18;" vertex="1" parent="1">
          <mxGeometry x="1241" y="390" width="114" height="60" as="geometry" />
        </mxCell>
        <mxCell id="0G1sZd40Yb9WgYaxsjde-165" value="gChatDis" style="rounded=1;whiteSpace=wrap;html=1;fontSize=18;" vertex="1" parent="1">
          <mxGeometry x="1250.5" y="490" width="120" height="60" as="geometry" />
        </mxCell>
        <mxCell id="0G1sZd40Yb9WgYaxsjde-166" value="msgcache(消息缓存)" style="rounded=1;whiteSpace=wrap;html=1;fontSize=18;" vertex="1" parent="1">
          <mxGeometry x="1250.5" y="585" width="120" height="60" as="geometry" />
        </mxCell>
        <mxCell id="0G1sZd40Yb9WgYaxsjde-172" style="edgeStyle=orthogonalEdgeStyle;rounded=0;orthogonalLoop=1;jettySize=auto;html=1;strokeColor=#000000;fontSize=18;fontColor=#000000;" edge="1" parent="1" source="0G1sZd40Yb9WgYaxsjde-167">
          <mxGeometry relative="1" as="geometry">
            <mxPoint x="1440" y="705" as="targetPoint" />
          </mxGeometry>
        </mxCell>
        <mxCell id="0G1sZd40Yb9WgYaxsjde-167" value="gChatDis" style="rounded=1;whiteSpace=wrap;html=1;fontSize=18;" vertex="1" parent="1">
          <mxGeometry x="1250.5" y="675" width="120" height="60" as="geometry" />
        </mxCell>
        <mxCell id="0G1sZd40Yb9WgYaxsjde-168" value="mq" style="rounded=1;whiteSpace=wrap;html=1;fontSize=18;" vertex="1" parent="1">
          <mxGeometry x="1005" y="615" width="130" height="60" as="geometry" />
        </mxCell>
        <mxCell id="0G1sZd40Yb9WgYaxsjde-171" value="6.主从同步" style="endArrow=classic;html=1;rounded=0;strokeColor=#000000;fontSize=18;fontColor=#000000;" edge="1" parent="1">
          <mxGeometry width="50" height="50" relative="1" as="geometry">
            <mxPoint x="1130" y="620" as="sourcePoint" />
            <mxPoint x="1250" y="540" as="targetPoint" />
          </mxGeometry>
        </mxCell>
        <mxCell id="0G1sZd40Yb9WgYaxsjde-175" style="edgeStyle=orthogonalEdgeStyle;rounded=0;orthogonalLoop=1;jettySize=auto;html=1;entryX=0;entryY=0.5;entryDx=0;entryDy=0;strokeColor=#000000;fontSize=18;fontColor=#000000;" edge="1" parent="1" source="0G1sZd40Yb9WgYaxsjde-174" target="0G1sZd40Yb9WgYaxsjde-160">
          <mxGeometry relative="1" as="geometry" />
        </mxCell>
        <mxCell id="0G1sZd40Yb9WgYaxsjde-174" value="msgcheck" style="rounded=1;whiteSpace=wrap;html=1;fontSize=18;" vertex="1" parent="1">
          <mxGeometry x="1410" y="390" width="114" height="60" as="geometry" />
        </mxCell>
        <mxCell id="0G1sZd40Yb9WgYaxsjde-177" value="gChat" style="rounded=1;whiteSpace=wrap;html=1;fontSize=18;" vertex="1" parent="1">
          <mxGeometry x="1410" y="495" width="130" height="60" as="geometry" />
        </mxCell>
        <mxCell id="0G1sZd40Yb9WgYaxsjde-178" value="&lt;font color=&quot;#000000&quot;&gt;imlinkd&lt;/font&gt;" style="rounded=1;whiteSpace=wrap;html=1;fontSize=18;fontColor=#FF6666;" vertex="1" parent="1">
          <mxGeometry x="720" y="1230" width="120" height="60" as="geometry" />
        </mxCell>
        <mxCell id="0G1sZd40Yb9WgYaxsjde-181" value="b" style="shape=umlActor;verticalLabelPosition=bottom;verticalAlign=top;html=1;outlineConnect=0;fontSize=18;fontColor=#000000;" vertex="1" parent="1">
          <mxGeometry x="819" y="1360" width="37" height="40" as="geometry" />
        </mxCell>
        <mxCell id="0G1sZd40Yb9WgYaxsjde-184" value="a" style="shape=umlActor;verticalLabelPosition=bottom;verticalAlign=top;html=1;outlineConnect=0;fontSize=18;fontColor=#000000;" vertex="1" parent="1">
          <mxGeometry x="715" y="1360" width="35" height="40" as="geometry" />
        </mxCell>
        <mxCell id="0G1sZd40Yb9WgYaxsjde-187" value="&lt;font color=&quot;#000000&quot;&gt;imlinkd&lt;/font&gt;" style="rounded=1;whiteSpace=wrap;html=1;fontSize=18;fontColor=#FF6666;" vertex="1" parent="1">
          <mxGeometry x="910" y="1230" width="120" height="60" as="geometry" />
        </mxCell>
        <mxCell id="0G1sZd40Yb9WgYaxsjde-189" value="c" style="shape=umlActor;verticalLabelPosition=bottom;verticalAlign=top;html=1;outlineConnect=0;fontSize=18;fontColor=#000000;" vertex="1" parent="1">
          <mxGeometry x="972" y="1361" width="37" height="40" as="geometry" />
        </mxCell>
        <mxCell id="0G1sZd40Yb9WgYaxsjde-193" value="gChatProxy" style="rounded=1;whiteSpace=wrap;html=1;fontSize=18;" vertex="1" parent="1">
          <mxGeometry x="827" y="1080" width="120" height="60" as="geometry" />
        </mxCell>
        <mxCell id="0G1sZd40Yb9WgYaxsjde-195" value="增加到c的下发" style="endArrow=classic;html=1;rounded=0;strokeColor=#FF3333;fontSize=18;fontColor=#FF3333;entryX=0.5;entryY=0;entryDx=0;entryDy=0;" edge="1" parent="1">
          <mxGeometry width="50" height="50" relative="1" as="geometry">
            <mxPoint x="898" y="1140" as="sourcePoint" />
            <mxPoint x="948" y="1230" as="targetPoint" />
          </mxGeometry>
        </mxCell>
        <mxCell id="0G1sZd40Yb9WgYaxsjde-197" value="" style="endArrow=classic;html=1;rounded=0;strokeColor=#000000;fontSize=18;fontColor=#000000;entryX=0.75;entryY=0;entryDx=0;entryDy=0;" edge="1" parent="1" target="0G1sZd40Yb9WgYaxsjde-178">
          <mxGeometry width="50" height="50" relative="1" as="geometry">
            <mxPoint x="860" y="1140" as="sourcePoint" />
            <mxPoint x="910" y="1090" as="targetPoint" />
          </mxGeometry>
        </mxCell>
        <mxCell id="0G1sZd40Yb9WgYaxsjde-200" value="" style="endArrow=classic;html=1;rounded=0;strokeColor=#000000;fontSize=18;fontColor=#000000;entryX=0.5;entryY=0;entryDx=0;entryDy=0;entryPerimeter=0;" edge="1" parent="1" target="0G1sZd40Yb9WgYaxsjde-184">
          <mxGeometry width="50" height="50" relative="1" as="geometry">
            <mxPoint x="770" y="1290" as="sourcePoint" />
            <mxPoint x="820" y="1240" as="targetPoint" />
          </mxGeometry>
        </mxCell>
        <mxCell id="0G1sZd40Yb9WgYaxsjde-201" value="" style="endArrow=classic;html=1;rounded=0;strokeColor=#000000;fontSize=18;fontColor=#000000;entryX=0.5;entryY=0;entryDx=0;entryDy=0;entryPerimeter=0;" edge="1" parent="1" target="0G1sZd40Yb9WgYaxsjde-181">
          <mxGeometry width="50" height="50" relative="1" as="geometry">
            <mxPoint x="800" y="1290" as="sourcePoint" />
            <mxPoint x="850" y="1240" as="targetPoint" />
          </mxGeometry>
        </mxCell>
        <mxCell id="0G1sZd40Yb9WgYaxsjde-203" value="下发给c" style="endArrow=classic;html=1;rounded=0;strokeColor=#FF3333;fontSize=18;fontColor=#FF3333;entryX=0.75;entryY=0.1;entryDx=0;entryDy=0;entryPerimeter=0;" edge="1" parent="1">
          <mxGeometry width="50" height="50" relative="1" as="geometry">
            <mxPoint x="960" y="1290" as="sourcePoint" />
            <mxPoint x="986.75" y="1364" as="targetPoint" />
          </mxGeometry>
        </mxCell>
        <mxCell id="0G1sZd40Yb9WgYaxsjde-207" value="&lt;font color=&quot;#000000&quot;&gt;imlinkd&lt;/font&gt;" style="rounded=1;whiteSpace=wrap;html=1;fontSize=18;fontColor=#FF6666;" vertex="1" parent="1">
          <mxGeometry x="1181" y="1229" width="120" height="60" as="geometry" />
        </mxCell>
        <mxCell id="0G1sZd40Yb9WgYaxsjde-208" value="b" style="shape=umlActor;verticalLabelPosition=bottom;verticalAlign=top;html=1;outlineConnect=0;fontSize=18;fontColor=#000000;" vertex="1" parent="1">
          <mxGeometry x="1280" y="1359" width="37" height="40" as="geometry" />
        </mxCell>
        <mxCell id="0G1sZd40Yb9WgYaxsjde-209" value="a" style="shape=umlActor;verticalLabelPosition=bottom;verticalAlign=top;html=1;outlineConnect=0;fontSize=18;fontColor=#000000;" vertex="1" parent="1">
          <mxGeometry x="1176" y="1359" width="35" height="40" as="geometry" />
        </mxCell>
        <mxCell id="0G1sZd40Yb9WgYaxsjde-210" value="&lt;font color=&quot;#000000&quot;&gt;imlinkd&lt;/font&gt;" style="rounded=1;whiteSpace=wrap;html=1;fontSize=18;fontColor=#FF6666;" vertex="1" parent="1">
          <mxGeometry x="1371" y="1229" width="120" height="60" as="geometry" />
        </mxCell>
        <mxCell id="0G1sZd40Yb9WgYaxsjde-211" value="c" style="shape=umlActor;verticalLabelPosition=bottom;verticalAlign=top;html=1;outlineConnect=0;fontSize=18;fontColor=#000000;" vertex="1" parent="1">
          <mxGeometry x="1433" y="1360" width="37" height="40" as="geometry" />
        </mxCell>
        <mxCell id="0G1sZd40Yb9WgYaxsjde-212" value="gmsgreadinfo" style="rounded=1;whiteSpace=wrap;html=1;fontSize=18;" vertex="1" parent="1">
          <mxGeometry x="1280" y="1000" width="120" height="60" as="geometry" />
        </mxCell>
        <mxCell id="0G1sZd40Yb9WgYaxsjde-214" value="" style="endArrow=classic;html=1;rounded=0;strokeColor=#000000;fontSize=18;fontColor=#FF3333;entryX=0.5;entryY=1;entryDx=0;entryDy=0;" edge="1" parent="1" target="0G1sZd40Yb9WgYaxsjde-207">
          <mxGeometry width="50" height="50" relative="1" as="geometry">
            <mxPoint x="1190" y="1360" as="sourcePoint" />
            <mxPoint x="1240" y="1310" as="targetPoint" />
          </mxGeometry>
        </mxCell>
        <mxCell id="0G1sZd40Yb9WgYaxsjde-215" value="" style="endArrow=classic;html=1;rounded=0;strokeColor=#000000;fontSize=18;fontColor=#FF3333;entryX=0.575;entryY=1.017;entryDx=0;entryDy=0;entryPerimeter=0;exitX=0.5;exitY=0;exitDx=0;exitDy=0;exitPerimeter=0;" edge="1" parent="1" source="0G1sZd40Yb9WgYaxsjde-208" target="0G1sZd40Yb9WgYaxsjde-207">
          <mxGeometry width="50" height="50" relative="1" as="geometry">
            <mxPoint x="1290" y="1370" as="sourcePoint" />
            <mxPoint x="1340" y="1320" as="targetPoint" />
          </mxGeometry>
        </mxCell>
        <mxCell id="0G1sZd40Yb9WgYaxsjde-216" value="增加f1已读上报" style="endArrow=classic;html=1;rounded=0;strokeColor=#FF3333;fontSize=18;fontColor=#FF3333;entryX=0.641;entryY=1.017;entryDx=0;entryDy=0;entryPerimeter=0;" edge="1" parent="1" target="0G1sZd40Yb9WgYaxsjde-210">
          <mxGeometry width="50" height="50" relative="1" as="geometry">
            <mxPoint x="1450" y="1360" as="sourcePoint" />
            <mxPoint x="1500" y="1310" as="targetPoint" />
          </mxGeometry>
        </mxCell>
        <mxCell id="0G1sZd40Yb9WgYaxsjde-217" value="" style="endArrow=classic;html=1;rounded=0;strokeColor=#000000;fontSize=18;fontColor=#FF3333;entryX=0.058;entryY=1.01;entryDx=0;entryDy=0;entryPerimeter=0;" edge="1" parent="1" target="0G1sZd40Yb9WgYaxsjde-218">
          <mxGeometry width="50" height="50" relative="1" as="geometry">
            <mxPoint x="1240" y="1230" as="sourcePoint" />
            <mxPoint x="1290" y="1190" as="targetPoint" />
          </mxGeometry>
        </mxCell>
        <mxCell id="0G1sZd40Yb9WgYaxsjde-218" value="&lt;font color=&quot;#000000&quot;&gt;imlinkmsgread&lt;/font&gt;" style="rounded=1;whiteSpace=wrap;html=1;fontSize=18;fontColor=#FF3333;" vertex="1" parent="1">
          <mxGeometry x="1288" y="1120" width="120" height="60" as="geometry" />
        </mxCell>
        <mxCell id="0G1sZd40Yb9WgYaxsjde-219" value="" style="endArrow=classic;html=1;rounded=0;strokeColor=#FF3333;fontSize=18;fontColor=#FF3333;entryX=0.666;entryY=0.99;entryDx=0;entryDy=0;entryPerimeter=0;" edge="1" parent="1" target="0G1sZd40Yb9WgYaxsjde-218">
          <mxGeometry width="50" height="50" relative="1" as="geometry">
            <mxPoint x="1420" y="1230" as="sourcePoint" />
            <mxPoint x="1470" y="1180" as="targetPoint" />
          </mxGeometry>
        </mxCell>
        <mxCell id="0G1sZd40Yb9WgYaxsjde-220" value="" style="endArrow=classic;html=1;rounded=0;strokeColor=#000000;fontSize=18;fontColor=#FF3333;entryX=0.429;entryY=1.049;entryDx=0;entryDy=0;entryPerimeter=0;" edge="1" parent="1">
          <mxGeometry width="50" height="50" relative="1" as="geometry">
            <mxPoint x="1340" y="1120" as="sourcePoint" />
            <mxPoint x="1341.48" y="1062.94" as="targetPoint" />
          </mxGeometry>
        </mxCell>
        <mxCell id="0G1sZd40Yb9WgYaxsjde-221" value="下发f1上的消息" style="endArrow=classic;html=1;rounded=0;strokeColor=#FF3333;fontSize=18;fontColor=#000000;" edge="1" parent="1" target="0G1sZd40Yb9WgYaxsjde-193">
          <mxGeometry width="50" height="50" relative="1" as="geometry">
            <mxPoint x="887" y="1000" as="sourcePoint" />
            <mxPoint x="910" y="950" as="targetPoint" />
            <mxPoint as="offset" />
          </mxGeometry>
        </mxCell>
        <mxCell id="0G1sZd40Yb9WgYaxsjde-222" value="全存储" style="shape=cylinder3;whiteSpace=wrap;html=1;boundedLbl=1;backgroundOutline=1;size=15;fontSize=18;fontColor=#000000;" vertex="1" parent="1">
          <mxGeometry x="1310" y="860" width="60" height="80" as="geometry" />
        </mxCell>
        <mxCell id="0G1sZd40Yb9WgYaxsjde-223" value="&lt;font color=&quot;#ff3333&quot;&gt;增加(f1,c)的上报存储&lt;/font&gt;" style="endArrow=classic;html=1;rounded=0;strokeColor=#FF3333;fontSize=18;fontColor=#000000;exitX=0.5;exitY=0;exitDx=0;exitDy=0;" edge="1" parent="1" source="0G1sZd40Yb9WgYaxsjde-212" target="0G1sZd40Yb9WgYaxsjde-222">
          <mxGeometry width="50" height="50" relative="1" as="geometry">
            <mxPoint x="1330" y="1010" as="sourcePoint" />
            <mxPoint x="1380" y="960" as="targetPoint" />
          </mxGeometry>
        </mxCell>
        <mxCell id="0G1sZd40Yb9WgYaxsjde-224" value="&lt;font color=&quot;#000000&quot;&gt;gChatDis&lt;/font&gt;" style="rounded=1;whiteSpace=wrap;html=1;fontSize=18;fontColor=#FF3333;" vertex="1" parent="1">
          <mxGeometry x="840" y="940" width="120" height="60" as="geometry" />
        </mxCell>
        <mxCell id="0G1sZd40Yb9WgYaxsjde-225" value="a" style="shape=umlActor;verticalLabelPosition=bottom;verticalAlign=top;html=1;outlineConnect=0;fontSize=18;fontColor=#000000;" vertex="1" parent="1">
          <mxGeometry x="1035" y="1804" width="35" height="40" as="geometry" />
        </mxCell>
        <mxCell id="0G1sZd40Yb9WgYaxsjde-226" value="&lt;font color=&quot;#000000&quot;&gt;imlinkd&lt;/font&gt;" style="rounded=1;whiteSpace=wrap;html=1;fontSize=18;fontColor=#FF6666;" vertex="1" parent="1">
          <mxGeometry x="992.5" y="1683" width="147.5" height="60" as="geometry" />
        </mxCell>
        <mxCell id="0G1sZd40Yb9WgYaxsjde-231" value="gmsgreadinfo" style="rounded=1;whiteSpace=wrap;html=1;fontSize=18;" vertex="1" parent="1">
          <mxGeometry x="885" y="1550" width="120" height="60" as="geometry" />
        </mxCell>
        <mxCell id="0G1sZd40Yb9WgYaxsjde-233" value="gmsgcache" style="rounded=1;whiteSpace=wrap;html=1;fontSize=18;" vertex="1" parent="1">
          <mxGeometry x="1095" y="1550" width="120" height="60" as="geometry" />
        </mxCell>
        <mxCell id="0G1sZd40Yb9WgYaxsjde-236" value="拉取分组消息" style="endArrow=classic;html=1;rounded=0;strokeColor=#000000;fontSize=18;fontColor=#FF3333;entryX=0.367;entryY=1;entryDx=0;entryDy=0;entryPerimeter=0;exitX=0.648;exitY=-0.04;exitDx=0;exitDy=0;exitPerimeter=0;" edge="1" parent="1">
          <mxGeometry x="0.0259" y="-10" width="50" height="50" relative="1" as="geometry">
            <mxPoint x="1106.08" y="1680.6" as="sourcePoint" />
            <mxPoint x="1157.04" y="1610" as="targetPoint" />
            <mxPoint x="-1" as="offset" />
          </mxGeometry>
        </mxCell>
        <mxCell id="0G1sZd40Yb9WgYaxsjde-237" value="按uid批量获取分组&lt;br&gt;已读消息" style="endArrow=classic;html=1;rounded=0;strokeColor=#000000;fontSize=18;fontColor=#000000;entryX=0.5;entryY=1;entryDx=0;entryDy=0;" edge="1" parent="1" target="0G1sZd40Yb9WgYaxsjde-231">
          <mxGeometry width="50" height="50" relative="1" as="geometry">
            <mxPoint x="1000" y="1680" as="sourcePoint" />
            <mxPoint x="950" y="1620" as="targetPoint" />
          </mxGeometry>
        </mxCell>
        <mxCell id="0G1sZd40Yb9WgYaxsjde-238" value="分组f1" style="endArrow=classic;html=1;rounded=0;strokeColor=#000000;fontSize=18;fontColor=#000000;entryX=0.139;entryY=1.019;entryDx=0;entryDy=0;entryPerimeter=0;" edge="1" parent="1" target="0G1sZd40Yb9WgYaxsjde-226">
          <mxGeometry width="50" height="50" relative="1" as="geometry">
            <mxPoint x="1050" y="1800" as="sourcePoint" />
            <mxPoint x="1030" y="1740" as="targetPoint" />
          </mxGeometry>
        </mxCell>
        <mxCell id="0G1sZd40Yb9WgYaxsjde-241" value="分组f2" style="endArrow=classic;html=1;rounded=0;strokeColor=#FF3333;fontSize=18;fontColor=#FF3333;exitX=0.5;exitY=0;exitDx=0;exitDy=0;exitPerimeter=0;" edge="1" parent="1" source="0G1sZd40Yb9WgYaxsjde-225">
          <mxGeometry width="50" height="50" relative="1" as="geometry">
            <mxPoint x="1053" y="1810" as="sourcePoint" />
            <mxPoint x="1120" y="1750" as="targetPoint" />
          </mxGeometry>
        </mxCell>
      </root>
    </mxGraphModel>
  </diagram>
</mxfile>
